<svg width="187" height="104" viewBox="0 0 187 104" fill="none" xmlns="http://www.w3.org/2000/svg">
<g filter="url(#filter0_d_39_161)">
<rect x="24" y="10" width="139" height="56" fill="#AC7C00"/>
<path d="M66.4622 32.103V45H65.5892C65.4512 45 65.3342 44.976 65.2382 44.928C65.1482 44.88 65.0582 44.799 64.9682 44.685L57.5072 34.965C57.5192 35.115 57.5282 35.262 57.5342 35.406C57.5402 35.55 57.5432 35.685 57.5432 35.811V45H56.0132V32.103H56.9132C56.9912 32.103 57.0572 32.109 57.1112 32.121C57.1652 32.127 57.2132 32.142 57.2552 32.166C57.2972 32.184 57.3392 32.214 57.3812 32.256C57.4232 32.292 57.4682 32.34 57.5162 32.4L64.9772 42.111C64.9652 41.955 64.9532 41.805 64.9412 41.661C64.9352 41.511 64.9322 41.37 64.9322 41.238V32.103H66.4622ZM75.2021 39.447C75.2021 39.075 75.1481 38.736 75.0401 38.43C74.9381 38.118 74.7851 37.851 74.5811 37.629C74.3831 37.401 74.1401 37.227 73.8521 37.107C73.5641 36.981 73.2371 36.918 72.8711 36.918C72.1031 36.918 71.4941 37.143 71.0441 37.593C70.6001 38.037 70.3241 38.655 70.2161 39.447H75.2021ZM76.4981 43.722C76.3001 43.962 76.0631 44.172 75.7871 44.352C75.5111 44.526 75.2141 44.67 74.8961 44.784C74.5841 44.898 74.2601 44.982 73.9241 45.036C73.5881 45.096 73.2551 45.126 72.9251 45.126C72.2951 45.126 71.7131 45.021 71.1791 44.811C70.6511 44.595 70.1921 44.283 69.8021 43.875C69.4181 43.461 69.1181 42.951 68.9021 42.345C68.6861 41.739 68.5781 41.043 68.5781 40.257C68.5781 39.621 68.6741 39.027 68.8661 38.475C69.0641 37.923 69.3461 37.446 69.7121 37.044C70.0781 36.636 70.5251 36.318 71.0531 36.09C71.5811 35.856 72.1751 35.739 72.8351 35.739C73.3811 35.739 73.8851 35.832 74.3471 36.018C74.8151 36.198 75.2171 36.462 75.5531 36.81C75.8951 37.152 76.1621 37.578 76.3541 38.088C76.5461 38.592 76.6421 39.168 76.6421 39.816C76.6421 40.068 76.6151 40.236 76.5611 40.32C76.5071 40.404 76.4051 40.446 76.2551 40.446H70.1621C70.1801 41.022 70.2581 41.523 70.3961 41.949C70.5401 42.375 70.7381 42.732 70.9901 43.02C71.2421 43.302 71.5421 43.515 71.8901 43.659C72.2381 43.797 72.6281 43.866 73.0601 43.866C73.4621 43.866 73.8071 43.821 74.0951 43.731C74.3891 43.635 74.6411 43.533 74.8511 43.425C75.0611 43.317 75.2351 43.218 75.3731 43.128C75.5171 43.032 75.6401 42.984 75.7421 42.984C75.8741 42.984 75.9761 43.035 76.0481 43.137L76.4981 43.722ZM85.9748 45H84.4358C84.3038 45 84.1988 44.967 84.1208 44.901C84.0488 44.829 83.9888 44.751 83.9408 44.667L81.6458 41.094C81.6218 41.178 81.5948 41.262 81.5648 41.346C81.5408 41.424 81.5048 41.496 81.4568 41.562L79.3328 44.667C79.2728 44.751 79.2068 44.829 79.1348 44.901C79.0688 44.967 78.9758 45 78.8558 45H77.4248L80.6198 40.32L77.5508 35.883H79.0898C79.2218 35.883 79.3178 35.904 79.3778 35.946C79.4378 35.988 79.4918 36.048 79.5398 36.126L81.7808 39.546C81.8288 39.372 81.9038 39.204 82.0058 39.042L83.9678 36.162C84.0218 36.078 84.0788 36.012 84.1388 35.964C84.2048 35.91 84.2828 35.883 84.3728 35.883H85.8488L82.7798 40.239L85.9748 45ZM90.2506 45.144C89.5306 45.144 88.9756 44.943 88.5856 44.541C88.2016 44.139 88.0096 43.56 88.0096 42.804V37.224H86.9116C86.8156 37.224 86.7346 37.197 86.6686 37.143C86.6026 37.083 86.5696 36.993 86.5696 36.873V36.234L88.0636 36.045L88.4326 33.228C88.4506 33.138 88.4896 33.066 88.5496 33.012C88.6156 32.952 88.6996 32.922 88.8016 32.922H89.6116V36.063H92.2486V37.224H89.6116V42.696C89.6116 43.08 89.7046 43.365 89.8906 43.551C90.0766 43.737 90.3166 43.83 90.6106 43.83C90.7786 43.83 90.9226 43.809 91.0426 43.767C91.1686 43.719 91.2766 43.668 91.3666 43.614C91.4566 43.56 91.5316 43.512 91.5916 43.47C91.6576 43.422 91.7146 43.398 91.7626 43.398C91.8466 43.398 91.9216 43.449 91.9876 43.551L92.4556 44.316C92.1796 44.574 91.8466 44.778 91.4566 44.928C91.0666 45.072 90.6646 45.144 90.2506 45.144Z" fill="white"/>
<path d="M133.354 39.3536C133.549 39.1583 133.549 38.8417 133.354 38.6464L130.172 35.4645C129.976 35.2692 129.66 35.2692 129.464 35.4645C129.269 35.6597 129.269 35.9763 129.464 36.1716L132.293 39L129.464 41.8284C129.269 42.0237 129.269 42.3403 129.464 42.5355C129.66 42.7308 129.976 42.7308 130.172 42.5355L133.354 39.3536ZM108 39.5H133V38.5H108V39.5Z" fill="white"/>
</g>
<defs>
<filter id="filter0_d_39_161" x="0" y="0" width="187" height="104" filterUnits="userSpaceOnUse" color-interpolation-filters="sRGB">
<feFlood flood-opacity="0" result="BackgroundImageFix"/>
<feColorMatrix in="SourceAlpha" type="matrix" values="0 0 0 0 0 0 0 0 0 0 0 0 0 0 0 0 0 0 127 0" result="hardAlpha"/>
<feOffset dy="14"/>
<feGaussianBlur stdDeviation="12"/>
<feComposite in2="hardAlpha" operator="out"/>
<feColorMatrix type="matrix" values="0 0 0 0 0 0 0 0 0 0 0 0 0 0 0 0 0 0 0.35 0"/>
<feBlend mode="normal" in2="BackgroundImageFix" result="effect1_dropShadow_39_161"/>
<feBlend mode="normal" in="SourceGraphic" in2="effect1_dropShadow_39_161" result="shape"/>
</filter>
</defs>
</svg>
